<svg width="32" height="33" viewBox="0 0 32 33" fill="none" xmlns="http://www.w3.org/2000/svg">
<path d="M21.3333 11.1667C23.4551 11.1667 25.4899 12.0095 26.9902 13.5098C28.4905 15.0101 29.3333 17.0449 29.3333 19.1667V28.5H24V19.1667C24 18.4594 23.7191 17.7811 23.219 17.281C22.7189 16.7809 22.0406 16.5 21.3333 16.5C20.6261 16.5 19.9478 16.7809 19.4477 17.281C18.9476 17.7811 18.6667 18.4594 18.6667 19.1667V28.5H13.3333V19.1667C13.3333 17.0449 14.1762 15.0101 15.6765 13.5098C17.1768 12.0095 19.2116 11.1667 21.3333 11.1667Z" stroke="#1F1F1F" stroke-width="2" stroke-linecap="round" stroke-linejoin="round"/>
<path d="M7.99999 12.5H2.66666V28.5H7.99999V12.5Z" stroke="#1F1F1F" stroke-width="2" stroke-linecap="round" stroke-linejoin="round"/>
<path d="M5.33332 8.5C6.80608 8.5 7.99999 7.30609 7.99999 5.83333C7.99999 4.36057 6.80608 3.16666 5.33332 3.16666C3.86056 3.16666 2.66666 4.36057 2.66666 5.83333C2.66666 7.30609 3.86056 8.5 5.33332 8.5Z" stroke="#1F1F1F" stroke-width="2" stroke-linecap="round" stroke-linejoin="round"/>
</svg>
